# xmcd
#
# Track frame offsets: 
#        150
#        16558
#        35799
#        49213
#        65350
#        79516
#        92899
#        108110
#        122609
#        134769
#        145238
#        165407
#
# Disc length: 2477 seconds
#
# Revision: 4
# Processed by: cddbd v1.5.2PL0 Copyright (c) Steve Scherf et al.
# Submitted via: ExactAudioCopy v1.3
#
DISCID=9909ab0c
DTITLE=Marty Stuart and Fabulous Superlatives - Country Music
DYEAR=2003
DGENRE=Country
TTITLE0=A Satisfied Mind
TTITLE1=Fool For Love
TTITLE2=If There Ain't There Ought'a Be
TTITLE3=Here I Am
TTITLE4=Sundown In Nashville
TTITLE5=By George
TTITLE6=Farmer's Blues (With Merle Haggard)
TTITLE7=Wishful Thinkin'
TTITLE8=If You Wanted Me Around
TTITLE9=Too Much Mouth (At The End Of The Money)
TTITLE10=Tip Your Hat (Featuring Josh Graves and Earl Scruggs)
TTITLE11=Walls Of A Prison
EXTD=Marty Stuart and His Fabulous Superlatives - Country Music\\r\n\\
EXTD=r\n(c)2003 Sony Music - COLUMBIA\\r\nwww.sonynashville.com/MartyS
EXTD=tuart/ConnecteD\\r\nupc 696998706323\\r\nKatalog: CK 87063\\r\n\\
EXTD=r\nProduced by Marty Stuart and Justin Niebank
EXTT0=
EXTT1=
EXTT2=
EXTT3=
EXTT4=
EXTT5=
EXTT6=
EXTT7=
EXTT8=
EXTT9=
EXTT10=
EXTT11=
PLAYORDER=
